<svg xmlns="http://www.w3.org/2000/svg" viewBox="0 0 512 512" fill="#00e5ff"><path d="M64 48C28.7 48 0 76.7 0 112V400c0 35.3 28.7 64 64 64H448c35.3 0 64-28.7 64-64V112c0-35.3-28.7-64-64-64H64zM416 160c8.8 0 16 7.2 16 16s-7.2 16-16 16H160c-8.8 0-16-7.2-16-16s7.2-16 16-16H416zm0 96c8.8 0 16 7.2 16 16s-7.2 16-16 16H160c-8.8 0-16-7.2-16-16s7.2-16 16-16H416zm0 96c8.8 0 16 7.2 16 16s-7.2 16-16 16H160c-8.8 0-16-7.2-16-16s7.2-16 16-16H416zM96 176c-17.7 0-32-14.3-32-32S78.3 112 96 112s32 14.3 32 32s-14.3 32-32 32zm0 96c-17.7 0-32-14.3-32-32s14.3-32 32-32s32 14.3 32 32s-14.3 32-32 32zm0 96c-17.7 0-32-14.3-32-32s14.3-32 32-32s32 14.3 32 32s-14.3 32-32 32z" /></svg>